<svg viewBox="0 0 18 14" xmlns="http://www.w3.org/2000/svg">
<path d="M6.46967 0.46967C6.76256 0.176777 7.23744 0.176777 7.53033 0.46967C7.82322 0.762563 7.82322 1.23744 7.53033 1.53033L2.81066 6.25H17C17.4142 6.25 17.75 6.58578 17.75 7C17.75 7.41421 17.4142 7.75 17 7.75H2.81065L7.53033 12.4697C7.82322 12.7626 7.82322 13.2374 7.53033 13.5303C7.23744 13.8232 6.76256 13.8232 6.46967 13.5303L0.46967 7.53033C0.395473 7.45613 0.340072 7.37026 0.303467 7.27862C0.271978 7.19997 0.253423 7.11475 0.250434 7.02558C0.249863 7.00877 0.249856 6.99193 0.25041 6.97512C0.253377 6.88409 0.272565 6.79716 0.305176 6.71714C0.341787 6.62709 0.396619 6.54272 0.46967 6.46967L6.46967 0.46967Z" fill="currentColor"/>
</svg>
