<svg width="24" height="24" viewBox="0 0 24 24" fill="none" xmlns="http://www.w3.org/2000/svg">
<path d="M14.5303 5.46967C14.2374 5.17678 13.7626 5.17678 13.4697 5.46967C13.1768 5.76256 13.1768 6.23744 13.4697 6.53033L18.1893 11.25H4C3.58579 11.25 3.25 11.5858 3.25 12C3.25 12.4142 3.58579 12.75 4 12.75H18.1894L13.4697 17.4697C13.1768 17.7626 13.1768 18.2374 13.4697 18.5303C13.7626 18.8232 14.2374 18.8232 14.5303 18.5303L20.5303 12.5303C20.604 12.4567 20.6591 12.3715 20.6958 12.2806C20.7274 12.2021 20.7452 12.1193 20.7491 12.036C20.7497 12.024 20.75 12.012 20.75 12C20.75 11.993 20.7499 11.986 20.7497 11.9791C20.7472 11.8858 20.7276 11.7968 20.694 11.715C20.6574 11.6258 20.6028 11.5422 20.5303 11.4697L14.5303 5.46967Z" fill="#466FFF"/>
</svg>
