<svg viewBox="0 0 23 20" xmlns="http://www.w3.org/2000/svg">
<path fill-rule="evenodd" clip-rule="evenodd" d="M0.317749 9.63435C0.317749 8.34123 1.24501 7.26468 2.4709 7.03335C3.58988 3.27701 7.06918 0.537598 11.19 0.537598C13.5673 0.537598 15.5882 1.47664 17.1785 3.33381L17.5166 1.41708C17.5886 1.00916 17.9776 0.73683 18.3856 0.808802C18.7935 0.880775 19.0658 1.2698 18.9938 1.67771L18.3459 5.3497C18.2795 5.72634 17.9403 5.99264 17.5586 5.9678H13.8646C13.4513 5.94089 13.138 5.584 13.1649 5.17066C13.1918 4.75733 13.5487 4.44406 13.962 4.47097L16.0905 4.36906C14.7498 2.77118 13.1063 2.0376 11.19 2.0376C7.84851 2.0376 5.00952 4.19564 3.9934 7.19468C4.94433 7.59612 5.61172 8.5373 5.61172 9.63435C5.61172 11.0962 4.42663 12.2813 2.96474 12.2813C1.50285 12.2813 0.317749 11.0962 0.317749 9.63435ZM3.7626 18.6081C3.7048 19.0183 3.99043 19.3976 4.40059 19.4554C4.81075 19.5132 5.19012 19.2276 5.24792 18.8174L5.54226 16.729C7.12415 18.5448 9.12625 19.4628 11.4768 19.4628C15.5976 19.4628 19.0769 16.7234 20.1958 12.967C21.4217 12.7357 22.349 11.6591 22.349 10.366C22.349 8.90412 21.1639 7.71902 19.702 7.71902C18.2401 7.71902 17.055 8.90412 17.055 10.366C17.055 11.4631 17.7224 12.4042 18.6733 12.8057C17.6572 15.8047 14.8182 17.9628 11.4768 17.9628C9.5562 17.9628 7.90977 17.226 6.56737 15.6208H8.98965C9.40316 15.645 9.75804 15.3295 9.7823 14.916C9.80656 14.5025 9.49102 14.1476 9.07752 14.1233L5.10333 14.0323C4.71344 14.0094 4.37125 14.2896 4.31674 14.6763L3.7626 18.6081ZM2.96474 10.7813C3.5982 10.7813 4.11172 10.2678 4.11172 9.63435C4.11172 9.00089 3.5982 8.48737 2.96474 8.48737C2.33127 8.48737 1.81775 9.00089 1.81775 9.63435C1.81775 10.2678 2.33127 10.7813 2.96474 10.7813ZM18.555 10.366C18.555 9.73255 19.0685 9.21902 19.702 9.21902C20.3355 9.21902 20.849 9.73255 20.849 10.366C20.849 10.9995 20.3355 11.513 19.702 11.513C19.0685 11.513 18.555 10.9995 18.555 10.366Z" fill="currentColor"/>
</svg>
