<svg viewBox="0 0 16 16" xmlns="http://www.w3.org/2000/svg">
<path fill-rule="evenodd" clip-rule="evenodd" d="M10.6564 2.49837C10.6564 2.22313 10.4254 2 10.1403 2C9.85526 2 9.62418 2.22313 9.62418 2.49837V3.03365H6.37453V2.49837C6.37453 2.22313 6.14345 2 5.8584 2C5.57335 2 5.34227 2.22313 5.34227 2.49837V3.03365H4.55849C3.5133 3.03365 2.66602 3.85179 2.66602 4.86101V11.506C2.66602 12.5152 3.5133 13.3333 4.55849 13.3333H11.4402C12.4854 13.3333 13.3327 12.5152 13.3327 11.506V4.86101C13.3327 3.85179 12.4854 3.03365 11.4402 3.03365H10.6564V2.49837ZM12.3004 6.13462V4.86101C12.3004 4.40228 11.9153 4.03039 11.4402 4.03039H10.6564V4.5657C10.6564 4.84094 10.4254 5.06407 10.1403 5.06407C9.85526 5.06407 9.62418 4.84094 9.62418 4.5657V4.03039H6.37453V4.5657C6.37453 4.84094 6.14345 5.06407 5.8584 5.06407C5.57335 5.06407 5.34227 4.84094 5.34227 4.5657V4.03039H4.55849C4.0834 4.03039 3.69827 4.40228 3.69827 4.86101V6.13462H12.3004ZM3.69827 7.13137H12.3004V11.506C12.3004 11.9647 11.9153 12.3366 11.4402 12.3366H4.55849C4.08341 12.3366 3.69827 11.9647 3.69827 11.506V7.13137Z" fill="currentColor"/>
</svg>
