<svg viewBox="0 0 12 12" xmlns="http://www.w3.org/2000/svg">
<path fill-rule="evenodd" clip-rule="evenodd" d="M6.50336 0.503145C6.50336 0.225266 6.27809 0 6.00021 0C5.72233 0 5.49707 0.225266 5.49707 0.503145V6.8022L4.20911 5.51424C4.01262 5.31775 3.69404 5.31775 3.49755 5.51424C3.30106 5.71073 3.30106 6.02931 3.49755 6.2258L5.6443 8.37255C5.70623 8.43447 5.78027 8.47688 5.8588 8.49977C5.89573 8.51057 5.93441 8.51724 5.97432 8.51926C5.98289 8.5197 5.99153 8.51992 6.00021 8.51992C6.14263 8.51992 6.27123 8.46074 6.36276 8.36564L8.50261 6.2258C8.6991 6.02931 8.6991 5.71073 8.50261 5.51424C8.30612 5.31775 7.98754 5.31775 7.79105 5.51424L6.50336 6.80194V0.503145ZM1.16989 8.05031C1.44777 8.05031 1.67304 8.27558 1.67304 8.55346V10.1635C1.67304 10.4785 1.92834 10.7338 2.24327 10.7338H9.75689C10.0718 10.7338 10.3271 10.4785 10.3271 10.1635V8.55346C10.3271 8.27558 10.5524 8.05031 10.8303 8.05031C11.1081 8.05031 11.3334 8.27558 11.3334 8.55346V10.1635C11.3334 11.0342 10.6276 11.74 9.75689 11.74H2.24327C1.37258 11.74 0.666748 11.0342 0.666748 10.1635V8.55346C0.666748 8.27558 0.892014 8.05031 1.16989 8.05031Z" fill="currentColor"/>
</svg>
