<svg width="16" height="16" viewBox="0 0 16 16" fill="none" xmlns="http://www.w3.org/2000/svg">
<path fill-rule="evenodd" clip-rule="evenodd" d="M8.00021 5.83856C6.89419 5.83856 5.99946 6.73684 5.99946 7.84261C5.99946 8.94838 6.89419 9.84666 8.00021 9.84666C9.10623 9.84666 10.001 8.94838 10.001 7.84261C10.001 6.73684 9.10623 5.83856 8.00021 5.83856ZM7.00148 7.84261C7.00148 7.28817 7.44967 6.84059 8.00021 6.84059C8.55075 6.84059 8.99893 7.28817 8.99893 7.84261C8.99893 8.39706 8.55075 8.84464 8.00021 8.84464C7.44967 8.84464 7.00148 8.39706 7.00148 7.84261Z" fill="#9E9BB1"/>
<path fill-rule="evenodd" clip-rule="evenodd" d="M13.9472 7.61859C14.0175 7.75943 14.0177 7.92544 13.9474 8.06628L13.4991 7.84261C13.9474 8.06628 13.947 8.06707 13.947 8.06707L13.9464 8.06824L13.9447 8.07166L13.939 8.08279C13.9342 8.09208 13.9275 8.10508 13.9188 8.12155C13.9014 8.15449 13.8762 8.20131 13.8432 8.26005C13.7773 8.37746 13.6803 8.54285 13.5531 8.74027C13.2993 9.13414 12.922 9.66057 12.4277 10.1889C11.4484 11.2358 9.95033 12.3517 8.00004 12.3517C6.04976 12.3517 4.55165 11.2358 3.57238 10.1889C3.07813 9.66057 2.70081 9.13414 2.44699 8.74027C2.31977 8.54285 2.22276 8.37746 2.15687 8.26005C2.1239 8.20131 2.09867 8.15449 2.08128 8.12155C2.07258 8.10508 2.06584 8.09208 2.06108 8.08279L2.0554 8.07166L2.05368 8.06824L2.05309 8.06707L2.0527 8.06628C1.98243 7.92544 1.98243 7.75978 2.0527 7.61894L2.50101 7.84261C2.0527 7.61894 2.05309 7.61815 2.05309 7.61815L2.05368 7.61698L2.0554 7.61356L2.06108 7.60243C2.06584 7.59314 2.07258 7.58014 2.08128 7.56367C2.09867 7.53073 2.1239 7.48391 2.15687 7.42517C2.22276 7.30776 2.31977 7.14237 2.44699 6.94495C2.70081 6.55109 3.07813 6.02465 3.57238 5.4963C4.55165 4.44944 6.04976 3.3335 8.00004 3.3335C9.95033 3.3335 11.4484 4.44944 12.4277 5.4963C12.922 6.02465 13.2993 6.55109 13.5531 6.94495C13.6803 7.14237 13.7773 7.30776 13.8432 7.42517C13.8762 7.48391 13.9014 7.53073 13.9188 7.56367C13.9275 7.58014 13.9342 7.59314 13.939 7.60243L13.9447 7.61356L13.9464 7.61698L13.9472 7.61859ZM3.28928 8.19749C3.19942 8.05804 3.1269 7.9373 3.07224 7.84261C3.1269 7.74792 3.19942 7.62718 3.28928 7.48773C3.51975 7.13008 3.86105 6.65449 4.30414 6.18082C5.19954 5.22363 6.45094 4.33552 8.00004 4.33552C9.54914 4.33552 10.8006 5.22363 11.6959 6.18082C12.139 6.65449 12.4803 7.13008 12.7108 7.48773C12.8007 7.62718 12.8732 7.74792 12.9279 7.84261C12.8732 7.9373 12.8007 8.05804 12.7108 8.19749C12.4803 8.55514 12.139 9.03073 11.6959 9.5044C10.8006 10.4616 9.54914 11.3497 8.00004 11.3497C6.45094 11.3497 5.19954 10.4616 4.30414 9.5044C3.86105 9.03073 3.51975 8.55514 3.28928 8.19749ZM13.4991 7.84261C13.9474 7.61894 13.9472 7.61859 13.9472 7.61859L13.4991 7.84261Z" fill="#9E9BB1"/>
</svg>
