<svg viewBox="0 0 25 24" xmlns="http://www.w3.org/2000/svg">
<path fill-rule="evenodd" clip-rule="evenodd" d="M2.33337 8.37653C2.33337 5.37906 4.85646 3 7.90057 3C9.70136 3 11.3127 3.82706 12.3334 5.12145C13.354 3.82709 14.9651 3 16.7652 3C19.8113 3 22.3334 5.37906 22.3334 8.37653C22.3334 12.4028 19.8332 15.6735 17.4699 17.8774C16.276 18.9907 15.0852 19.8619 14.194 20.4546C13.7477 20.7514 13.3746 20.9796 13.1113 21.1346C12.9796 21.2121 12.8752 21.2714 12.8027 21.3119C12.7665 21.3321 12.7382 21.3476 12.7184 21.3584L12.6952 21.3709L12.6886 21.3745L12.6865 21.3756C12.6865 21.3756 12.6853 21.3763 12.3334 20.7139C11.9815 21.3763 11.981 21.376 11.981 21.376L11.9782 21.3745L11.9715 21.3709L11.9483 21.3584C11.9286 21.3476 11.9003 21.3321 11.864 21.3119C11.7915 21.2714 11.6872 21.2121 11.5555 21.1346C11.2922 20.9796 10.9191 20.7514 10.4727 20.4546C9.5815 19.8619 8.39073 18.9907 7.19687 17.8774C4.83358 15.6735 2.33337 12.4028 2.33337 8.37653ZM12.3334 20.7139L11.981 21.376C12.201 21.4929 12.4652 21.4932 12.6853 21.3763L12.3334 20.7139ZM12.3334 19.8519C12.339 19.8486 12.3447 19.8453 12.3504 19.8419C12.593 19.6992 12.9425 19.4854 13.3634 19.2056C14.2065 18.6449 15.3282 17.8235 16.4469 16.7804C18.7086 14.6712 20.8334 11.7733 20.8334 8.37653C20.8334 6.26426 19.0408 4.5 16.7652 4.5C15.0698 4.5 13.6319 5.48588 13.0186 6.86464C12.8982 7.13538 12.6297 7.30984 12.3334 7.30984C12.0371 7.30984 11.7685 7.13538 11.6481 6.86464C11.0349 5.48596 9.59706 4.5 7.90057 4.5C5.62695 4.5 3.83337 6.26426 3.83337 8.37653C3.83337 11.7733 5.95816 14.6712 8.21988 16.7804C9.33852 17.8235 10.4602 18.6449 11.3034 19.2056C11.7242 19.4854 12.0738 19.6992 12.3164 19.8419C12.3221 19.8453 12.3278 19.8486 12.3334 19.8519Z" fill="currentColor"/>
</svg>
