<svg viewBox="0 0 24 24" xmlns="http://www.w3.org/2000/svg">
<path fill-rule="evenodd" clip-rule="evenodd" d="M4.00103 6.89751C4.02348 6.42483 4.44156 6 5.00008 6H19.0001C19.5586 6 19.9767 6.42483 19.9991 6.89751L12.0001 12.2969L4.00103 6.89751ZM2.50008 7.2841C2.49997 7.29124 2.49997 7.29838 2.50008 7.30551V17.0625C2.50008 18.4303 3.6493 19.5 5.00008 19.5H19.0001C20.3508 19.5 21.5001 18.4303 21.5001 17.0625V7.30549C21.5002 7.29837 21.5002 7.29124 21.5001 7.28411V6.9375C21.5001 5.56969 20.3508 4.5 19.0001 4.5H5.00008C3.6493 4.5 2.50008 5.56969 2.50008 6.9375V7.2841ZM20.0001 8.70661V17.0625C20.0001 17.5509 19.5743 18 19.0001 18H5.00008C4.42585 18 4.00008 17.5509 4.00008 17.0625V8.70661L11.5805 13.8234C11.834 13.9945 12.1661 13.9945 12.4197 13.8234L20.0001 8.70661Z" fill="currentColor"/>
</svg>
