<svg viewBox="0 0 18 18" xmlns="http://www.w3.org/2000/svg">
<path fill-rule="evenodd" clip-rule="evenodd" d="M0 3.25C0 1.45507 1.45507 0 3.25 0H14.75C16.5449 0 18 1.45507 18 3.25V14.75C18 16.5449 16.5449 18 14.75 18H3.25C1.45507 18 0 16.5449 0 14.75V3.25ZM3.25 1.5C2.2835 1.5 1.5 2.2835 1.5 3.25V14.75C1.5 15.3479 1.7998 15.8757 2.25726 16.1914L12.1453 6.62753C12.4395 6.34295 12.9076 6.34685 13.197 6.6363L16.5 9.93933V3.25C16.5 2.2835 15.7165 1.5 14.75 1.5H3.25ZM16.5 12.059C16.4897 12.0498 16.4796 12.0402 16.4697 12.0303L12.6579 8.21852L4.09573 16.5H14.75C15.7165 16.5 16.5 15.7165 16.5 14.75V12.059ZM8.66666 5.79163C8.66666 7.37944 7.37948 8.66663 5.79166 8.66663C4.20384 8.66663 2.91666 7.37944 2.91666 5.79163C2.91666 4.20381 4.20384 2.91663 5.79166 2.91663C7.37948 2.91663 8.66666 4.20381 8.66666 5.79163ZM7.16666 5.79163C7.16666 6.55102 6.55105 7.16663 5.79166 7.16663C5.03226 7.16663 4.41666 6.55102 4.41666 5.79163C4.41666 5.03223 5.03226 4.41663 5.79166 4.41663C6.55105 4.41663 7.16666 5.03223 7.16666 5.79163Z" fill="currentColor"/>
</svg>
