<svg viewBox="0 0 20 20" xmlns="http://www.w3.org/2000/svg">
<path fill-rule="evenodd" clip-rule="evenodd" d="M10 20C15.5228 20 20 15.5228 20 10C20 4.47715 15.5228 0 10 0C4.47715 0 0 4.47715 0 10C0 15.5228 4.47715 20 10 20ZM10 18.555C5.2752 18.555 1.445 14.7248 1.445 10C1.445 5.2752 5.2752 1.445 10 1.445C14.7248 1.445 18.555 5.2752 18.555 10C18.555 14.7248 14.7248 18.555 10 18.555ZM9.99052 13.2C9.75806 13.2 9.56258 13.126 9.40409 12.9781C9.25615 12.8196 9.18219 12.6241 9.18219 12.3917C9.18219 11.9796 9.28785 11.5305 9.49918 11.0444C9.71051 10.5478 10.0381 10.1093 10.4819 9.72892C10.7777 9.47533 11.0472 9.22701 11.2902 8.98399C11.5438 8.73039 11.7446 8.4451 11.8925 8.12811C12.051 7.80055 12.1302 7.4043 12.1302 6.93938C12.1302 6.60125 12.051 6.28426 11.8925 5.9884C11.734 5.69254 11.5068 5.45479 11.2109 5.27516C10.9257 5.08497 10.5717 4.98987 10.149 4.98987C9.63126 4.98987 9.20332 5.08497 8.8652 5.27516C8.52707 5.46536 8.27347 5.72952 8.10441 6.06765C7.94591 6.40577 7.86667 6.80202 7.86667 7.25637C7.86667 7.48883 7.7927 7.68431 7.64477 7.84281C7.49684 7.99074 7.30136 8.06471 7.05833 8.06471C6.82587 8.06471 6.63039 7.99074 6.4719 7.84281C6.32397 7.68431 6.25 7.48883 6.25 7.25637C6.25 6.51672 6.4085 5.86688 6.72549 5.30686C7.05305 4.74684 7.50741 4.30833 8.08856 3.99134C8.68028 3.66378 9.3671 3.5 10.149 3.5C10.8358 3.5 11.4434 3.64793 11.9717 3.94379C12.5106 4.22908 12.9333 4.63061 13.2397 5.14837C13.5567 5.65556 13.7152 6.25256 13.7152 6.93938C13.7152 7.5311 13.6201 8.04357 13.4299 8.4768C13.2397 8.91002 12.9808 9.30098 12.6533 9.64967C12.3257 9.9878 11.9506 10.3259 11.5279 10.6641C11.2532 10.8859 11.063 11.1765 10.9574 11.5358C10.8517 11.8845 10.7989 12.1698 10.7989 12.3917C10.7989 12.6241 10.7249 12.8196 10.577 12.9781C10.429 13.126 10.2336 13.2 9.99052 13.2ZM11 15.5C11 16.0523 10.5523 16.5 10 16.5C9.44771 16.5 9 16.0523 9 15.5C9 14.9477 9.44771 14.5 10 14.5C10.5523 14.5 11 14.9477 11 15.5Z" fill="currentColor"/>
</svg>
