<svg viewBox="0 0 16 16" xmlns="http://www.w3.org/2000/svg">
<path fill-rule="evenodd" clip-rule="evenodd" d="M8.7996 0C12.7763 0 16 3.22373 16 7.20041C16 11.1771 12.7763 14.4008 8.7996 14.4008C7.10068 14.4008 5.53918 13.8124 4.30778 12.8283L1.37118 15.7649C1.0575 16.0786 0.548934 16.0786 0.235258 15.7649C-0.0784192 15.4512 -0.0784192 14.9427 0.235258 14.629L3.17184 11.6924C2.18763 10.461 1.59919 8.89941 1.59919 7.20041C1.59919 3.22373 4.82292 0 8.7996 0ZM4.77052 11.081C3.80151 10.0752 3.20563 8.70738 3.20563 7.20041C3.20563 4.11094 5.71013 1.60644 8.7996 1.60644C11.8891 1.60644 14.3936 4.11094 14.3936 7.20041C14.3936 10.2899 11.8891 12.7944 8.7996 12.7944C7.2927 12.7944 5.92496 12.1986 4.91914 11.2296C4.898 11.2021 4.87484 11.1757 4.84965 11.1505C4.82446 11.1253 4.79802 11.1022 4.77052 11.081Z" fill="currentColor"/>
</svg>
