<svg viewBox="0 0 24 24" xmlns="http://www.w3.org/2000/svg">
<path fill-rule="evenodd" clip-rule="evenodd" d="M12.6 6.34995C12.6 4.61025 14.0103 3.19995 15.75 3.19995C17.4897 3.19995 18.9 4.61025 18.9 6.34995C18.9 8.08965 17.4897 9.49995 15.75 9.49995C14.8608 9.49995 14.0576 9.1315 13.4848 8.53894L9.1714 11.0562C9.25509 11.3395 9.3 11.6395 9.3 11.9499C9.3 12.2602 9.25513 12.5601 9.17152 12.8433L13.4874 15.3583C14.06 14.7673 14.8621 14.4 15.75 14.4C17.4897 14.4 18.9 15.8103 18.9 17.55C18.9 19.2897 17.4897 20.7 15.75 20.7C14.0103 20.7 12.6 19.2897 12.6 17.55C12.6 17.2382 12.6453 16.9371 12.7296 16.6528L8.41531 14.1387C7.84254 14.7314 7.03931 15.0999 6.15 15.0999C4.4103 15.0999 3 13.6896 3 11.9499C3 10.2102 4.4103 8.79993 6.15 8.79993C7.03916 8.79993 7.84227 9.16833 8.41503 9.76083L12.7285 7.24356C12.6449 6.96027 12.6 6.66035 12.6 6.34995ZM14.3461 7.21738C14.3397 7.20478 14.3329 7.19228 14.3256 7.1799C14.3184 7.16744 14.3108 7.15527 14.3029 7.14339C14.1736 6.90796 14.1 6.63755 14.1 6.34995C14.1 5.43868 14.8387 4.69995 15.75 4.69995C16.6612 4.69995 17.4 5.43868 17.4 6.34995C17.4 7.26122 16.6612 7.99995 15.75 7.99995C15.1569 7.99995 14.637 7.68707 14.3461 7.21738ZM7.55256 11.0804C7.26148 10.6119 6.74217 10.2999 6.15 10.2999C5.23873 10.2999 4.5 11.0387 4.5 11.9499C4.5 12.8612 5.23873 13.5999 6.15 13.5999C6.74222 13.5999 7.26158 13.2879 7.55264 12.8193C7.55929 12.8062 7.56636 12.7932 7.57386 12.7804C7.58158 12.7671 7.58966 12.7542 7.59805 12.7415C7.7268 12.5065 7.8 12.2368 7.8 11.9499C7.8 11.6631 7.72683 11.3934 7.59814 11.1585C7.5898 11.1459 7.58178 11.1331 7.5741 11.1199C7.56648 11.1069 7.55931 11.0937 7.55256 11.0804ZM14.3339 16.7196C14.3174 16.7478 14.2993 16.7746 14.2799 16.7999C14.1649 17.025 14.1 17.2799 14.1 17.55C14.1 18.4612 14.8387 19.2 15.75 19.2C16.6612 19.2 17.4 18.4612 17.4 17.55C17.4 16.6387 16.6612 15.9 15.75 15.9C15.1765 15.9 14.6714 16.1925 14.3757 16.6365C14.3636 16.6647 14.3497 16.6924 14.3339 16.7196Z" fill="currentColor"/>
</svg>
