<svg viewBox="0 0 20 20" xmlns="http://www.w3.org/2000/svg">
<path fill-rule="evenodd" clip-rule="evenodd" d="M9.99502 0.700195C10.2761 0.700195 10.5337 0.857411 10.6621 1.10747L13.3479 6.33531L19.1499 7.27416C19.4274 7.31907 19.6565 7.5154 19.7433 7.78277C19.8302 8.05014 19.7603 8.34364 19.5622 8.54309L15.4201 12.7129L16.3201 18.521C16.3632 18.7988 16.2473 19.0774 16.0198 19.2426C15.7924 19.4079 15.4916 19.432 15.2407 19.3052L9.99502 16.6545L4.74931 19.3052C4.4984 19.432 4.19765 19.4079 3.97022 19.2426C3.74278 19.0774 3.62685 18.7988 3.6699 18.521L4.56989 12.7129L0.427878 8.54309C0.229759 8.34364 0.159815 8.05014 0.246688 7.78277C0.333561 7.5154 0.562659 7.31907 0.840175 7.27416L6.6421 6.33531L9.32791 1.10747C9.45637 0.857411 9.71389 0.700195 9.99502 0.700195ZM9.99502 3.09144L7.80314 7.35786C7.69424 7.56984 7.49108 7.71744 7.25584 7.75551L2.52089 8.52171L5.90118 11.9247C6.06913 12.0938 6.14673 12.3326 6.11023 12.5681L5.37576 17.3081L9.65676 15.1448C9.86946 15.0373 10.1206 15.0373 10.3333 15.1448L14.6143 17.3081L13.8798 12.5681C13.8433 12.3326 13.9209 12.0938 14.0889 11.9247L17.4691 8.52171L12.7342 7.75551C12.499 7.71744 12.2958 7.56984 12.1869 7.35786L9.99502 3.09144Z" fill="currentColor"/>
</svg>
