<svg width="16" height="16" viewBox="0 0 16 16" fill="none" xmlns="http://www.w3.org/2000/svg">
<path fill-rule="evenodd" clip-rule="evenodd" d="M8.00065 14.6668C11.6826 14.6668 14.6673 11.6821 14.6673 8.00016C14.6673 4.31826 11.6826 1.3335 8.00065 1.3335C4.31875 1.3335 1.33398 4.31826 1.33398 8.00016C1.33398 11.6821 4.31875 14.6668 8.00065 14.6668ZM8.00065 13.7035C4.85079 13.7035 2.29732 11.15 2.29732 8.00016C2.29732 4.8503 4.85079 2.29683 8.00065 2.29683C11.1505 2.29683 13.704 4.8503 13.704 8.00016C13.704 11.15 11.1505 13.7035 8.00065 13.7035ZM8.50065 4.00016C8.50065 3.72402 8.27679 3.50016 8.00065 3.50016C7.72451 3.50016 7.50065 3.72402 7.50065 4.00016V8.00016C7.50065 8.13277 7.55333 8.25995 7.6471 8.35372L9.6471 10.3537C9.84236 10.549 10.1589 10.549 10.3542 10.3537C10.5495 10.1585 10.5495 9.84187 10.3542 9.64661L8.50065 7.79306V4.00016Z" fill="#9E9BB1"/>
</svg>
