<svg width="24" height="24" viewBox="0 0 24 24" fill="none" xmlns="http://www.w3.org/2000/svg">
<circle cx="12" cy="12" r="12" fill="white"/>
<rect x="1.33398" y="1.33325" width="21.3333" height="21.3333" rx="10.6667" fill="url(#paint0_linear_4464_34358)"/>
<path d="M12.0008 7.63459C12.7242 7.63459 13.3127 8.22305 13.3127 8.9465C13.3127 9.66934 12.7241 10.2578 12.0008 10.2578C11.2778 10.2578 10.6892 9.66934 10.6892 8.9465C10.689 8.2229 11.2779 7.63459 12.0008 7.63459ZM12.0008 12.1139C13.7483 12.1139 15.1694 10.6932 15.1694 8.9465C15.1694 7.19885 13.7484 5.77759 12.0008 5.77759C10.2534 5.77759 8.83218 7.199 8.83218 8.9465C8.83218 10.6932 10.2534 12.1139 12.0008 12.1139ZM13.2827 14.6984C13.9345 14.55 14.5565 14.2924 15.1225 13.9366C15.3309 13.8055 15.4786 13.597 15.5333 13.357C15.5879 13.117 15.545 12.8651 15.4139 12.6567C15.349 12.5534 15.2645 12.464 15.165 12.3934C15.0656 12.3228 14.9532 12.2725 14.8343 12.2454C14.7154 12.2183 14.5924 12.2149 14.4722 12.2354C14.352 12.2559 14.237 12.2999 14.1338 12.3649C12.8357 13.181 11.165 13.1804 9.8679 12.3649C9.76473 12.2999 9.64976 12.2559 9.52957 12.2354C9.40938 12.2149 9.28632 12.2183 9.16744 12.2454C9.04856 12.2725 8.93619 12.3228 8.83676 12.3934C8.73733 12.4639 8.6528 12.5534 8.58799 12.6567C8.45687 12.865 8.41385 13.1169 8.4684 13.3569C8.52295 13.5969 8.67061 13.8054 8.87889 13.9366C9.44482 14.2923 10.0668 14.5498 10.7184 14.6984L8.94714 16.47C8.77307 16.6442 8.6753 16.8803 8.67534 17.1265C8.67539 17.3728 8.77324 17.6089 8.94737 17.7829C9.1215 17.957 9.35765 18.0548 9.60386 18.0547C9.85008 18.0547 10.0862 17.9568 10.2603 17.7827L12.0005 16.0422L13.7418 17.7829C13.8279 17.8691 13.9301 17.9375 14.0427 17.9842C14.1552 18.0308 14.2759 18.0548 14.3977 18.0548C14.5196 18.0548 14.6402 18.0308 14.7528 17.9842C14.8653 17.9375 14.9676 17.8691 15.0537 17.7829C15.14 17.6968 15.2085 17.5945 15.2553 17.4819C15.302 17.3693 15.3261 17.2485 15.3261 17.1266C15.3261 17.0047 15.302 16.8839 15.2553 16.7713C15.2085 16.6587 15.14 16.5564 15.0537 16.4703L13.2827 14.6984Z" fill="white"/>
<defs>
<linearGradient id="paint0_linear_4464_34358" x1="12.0007" y1="1.33325" x2="12.0007" y2="22.6666" gradientUnits="userSpaceOnUse">
<stop stop-color="#FFA122"/>
<stop offset="1" stop-color="#FF831E"/>
</linearGradient>
</defs>
</svg>
