<svg width="30" height="30" viewBox="0 0 30 30" fill="none" xmlns="http://www.w3.org/2000/svg">
<g clip-path="url(#clip0_816_12595)">
<path opacity="0.85" d="M15 30C23.2843 30 30 23.2843 30 15C30 6.71573 23.2843 0 15 0C6.71573 0 0 6.71573 0 15C0 23.2843 6.71573 30 15 30Z" fill="#32BEFA"/>
<path opacity="0.15" d="M12.25 21.875C11.7641 21.875 11.8466 21.6915 11.679 21.2288L10.25 16.5257L21.25 10" fill="#435269"/>
<path d="M12.25 21.8747C12.625 21.8747 12.7907 21.7032 13 21.4997L15 19.5549L12.5052 18.0505" fill="#ADB4BD"/>
<path d="M12.505 18.0514L18.55 22.5176C19.2398 22.8982 19.7377 22.7011 19.9095 21.8771L22.3701 10.2817C22.6221 9.27171 21.9851 8.81361 21.3252 9.11321L6.87647 14.6846C5.89021 15.0802 5.89596 15.6304 6.6967 15.8756L10.4046 17.0329L18.9887 11.6172C19.3939 11.3715 19.7659 11.5036 19.4606 11.7745" fill="white"/>
</g>
<defs>
<clipPath id="clip0_816_12595">
<rect width="30" height="30" fill="white"/>
</clipPath>
</defs>
</svg>
