<svg viewBox="0 0 30 30" fill="none" xmlns="http://www.w3.org/2000/svg">
<g clip-path="url(#clip0_816_12586)">
<circle opacity="0.85" cx="15" cy="15" r="15" fill="#8750CC"/>
<g clip-path="url(#clip1_816_12586)">
<path d="M22.0119 8.48029C21.5275 8.03497 19.5665 6.60919 15.1955 6.58966C15.1955 6.58966 10.0431 6.27716 7.53139 8.58185C6.13295 9.98029 5.64076 12.0233 5.58998 14.5623C5.5392 17.0975 5.47279 21.8514 10.0548 23.1404H10.0587L10.0548 25.1053C10.0548 25.1053 10.0275 25.9022 10.5509 26.0623C11.1837 26.2576 11.5587 25.6522 12.1642 24.9998C12.4962 24.6404 12.9533 24.117 13.3009 23.7147C16.4337 23.9764 18.8439 23.3748 19.1173 23.285C19.7501 23.0779 23.3322 22.6209 23.9142 17.867C24.5158 12.9764 23.6212 9.87872 22.0119 8.48029ZM22.5431 17.5233C22.0509 21.492 19.1486 21.742 18.6134 21.9139C18.3869 21.9881 16.2697 22.5154 13.6056 22.3397C13.6056 22.3397 11.6212 24.7342 11.004 25.3553C10.9064 25.4529 10.7931 25.492 10.7189 25.4725C10.6134 25.4451 10.5822 25.3201 10.5861 25.1365C10.5861 24.8709 10.6017 21.867 10.6017 21.867C10.5978 21.867 10.5978 21.867 10.6017 21.867C6.72279 20.7928 6.94936 16.7459 6.99233 14.6287C7.03529 12.5115 7.43373 10.7733 8.61733 9.60529C10.7384 7.68341 15.1173 7.96857 15.1173 7.96857C18.8126 7.98419 20.5822 9.09747 20.9923 9.46857C22.3556 10.6404 23.0509 13.4334 22.5431 17.5233Z" fill="white"/>
<path d="M16.9961 14.7033C16.8672 14.7033 16.7579 14.6017 16.75 14.4689C16.7071 13.6291 16.3125 13.2189 15.5079 13.1759C15.3711 13.1681 15.2657 13.0509 15.2735 12.9142C15.2813 12.7775 15.3985 12.672 15.5352 12.6799C16.5977 12.7384 17.1914 13.3478 17.2461 14.4416C17.2539 14.5783 17.1485 14.6955 17.0118 14.6994C17.0039 14.7033 17 14.7033 16.9961 14.7033Z" fill="white"/>
<path d="M18.2617 15.1249H18.2578C18.121 15.121 18.0117 15.0078 18.0156 14.871C18.0351 14.0273 17.7929 13.3437 17.2773 12.7812C16.7656 12.2187 16.0585 11.914 15.1249 11.8476C14.9882 11.8359 14.8867 11.7187 14.8984 11.582C14.9101 11.4453 15.0273 11.3437 15.164 11.3554C16.2187 11.4335 17.0507 11.8007 17.6445 12.4492C18.2421 13.1015 18.5312 13.9179 18.5117 14.8828C18.5078 15.0195 18.3945 15.1249 18.2617 15.1249Z" fill="white"/>
<path d="M19.5585 15.6328C19.4218 15.6328 19.3124 15.5234 19.3124 15.3867C19.3007 13.875 18.8671 12.7227 17.9843 11.8594C17.1132 11.0078 16.0077 10.5742 14.7069 10.5625C14.5702 10.5625 14.4608 10.4492 14.4608 10.3125C14.4608 10.1758 14.5741 10.0664 14.7069 10.0664C16.1405 10.0781 17.3593 10.5586 18.3241 11.5039C19.2928 12.4492 19.7889 13.7539 19.8046 15.3789C19.8085 15.5195 19.6991 15.6328 19.5585 15.6328C19.5624 15.6328 19.5624 15.6328 19.5585 15.6328Z" fill="white"/>
<path d="M15.5663 17.7616C15.5663 17.7616 15.9139 17.7928 16.1014 17.5624L16.4647 17.1053C16.6405 16.8788 17.0663 16.7342 17.4803 16.9647C17.7108 17.0936 18.1288 17.3514 18.3866 17.5428C18.6639 17.746 19.2264 18.2147 19.2303 18.2186C19.4999 18.4452 19.5624 18.7772 19.3788 19.1327C19.3788 19.1327 19.3788 19.1366 19.3788 19.1405C19.1913 19.4725 18.9374 19.785 18.621 20.0741C18.6171 20.0741 18.6171 20.078 18.6132 20.078C18.3514 20.2967 18.0936 20.4217 17.8436 20.4491C17.8124 20.4569 17.7772 20.4569 17.7303 20.4569C17.621 20.4569 17.5116 20.4413 17.4022 20.4061L17.3944 20.3944C17.0038 20.285 16.3553 20.0116 15.2772 19.4139C14.5741 19.0272 13.9921 18.6327 13.496 18.2381C13.2343 18.0311 12.9686 17.8006 12.6952 17.5272C12.6874 17.5194 12.6757 17.5077 12.6678 17.4999C12.66 17.4921 12.6483 17.4803 12.6405 17.4725C12.6327 17.4647 12.621 17.453 12.6132 17.4452C12.6053 17.4374 12.5936 17.4256 12.5858 17.4178C12.3163 17.1444 12.0819 16.8788 11.8749 16.6171C11.4803 16.1249 11.0858 15.5389 10.6991 14.8358C10.1014 13.7538 9.828 13.1053 9.71863 12.7186L9.70691 12.7108C9.67175 12.6014 9.65613 12.4921 9.65613 12.3827C9.65613 12.3358 9.65613 12.3006 9.66394 12.2694C9.69519 12.0155 9.82019 11.7616 10.035 11.4999C10.035 11.496 10.0389 11.496 10.0389 11.4921C10.328 11.1717 10.6405 10.9217 10.9725 10.7342C10.9725 10.7342 10.9764 10.7342 10.9803 10.7342C11.3319 10.5506 11.6639 10.6131 11.8944 10.8827C11.8944 10.8827 12.3671 11.4491 12.5702 11.7264C12.7616 11.9881 13.0194 12.4022 13.1483 12.6327C13.3788 13.0467 13.2343 13.4725 13.0077 13.6483L12.5507 14.0116C12.3202 14.1991 12.3514 14.5467 12.3514 14.5467C12.3514 14.5467 13.0272 17.1171 15.5663 17.7616Z" fill="white"/>
</g>
</g>
<defs>
<clipPath id="clip0_816_12586">
<rect width="30" height="30" fill="white"/>
</clipPath>
<clipPath id="clip1_816_12586">
<rect width="20" height="20" fill="white" transform="translate(5 6.25)"/>
</clipPath>
</defs>
</svg>
