<svg width="30" height="30" viewBox="0 0 30 30" fill="none" xmlns="http://www.w3.org/2000/svg">
<g clip-path="url(#clip0_816_12650)">
<circle opacity="0.85" cx="15" cy="15" r="15" fill="#3F86D9"/>
<path fill-rule="evenodd" clip-rule="evenodd" d="M23.3382 11.9439C23.4679 11.5525 23.3382 11.2678 22.7636 11.2678H20.8547C20.3728 11.2678 20.1504 11.5169 20.0206 11.7838C20.0206 11.7838 19.0383 14.0614 17.6668 15.5383C17.222 15.9653 17.0182 16.1077 16.7772 16.1077C16.6475 16.1077 16.4807 15.9653 16.4807 15.5738V11.9262C16.4807 11.4635 16.3324 11.25 15.9247 11.25H12.9222C12.6256 11.25 12.4403 11.4635 12.4403 11.677C12.4403 12.1219 13.1261 12.2286 13.2002 13.4742V16.1788C13.2002 16.766 13.089 16.8728 12.848 16.8728C12.1994 16.8728 10.624 14.5774 9.67876 11.9617C9.49342 11.4457 9.30808 11.25 8.8262 11.25H6.89868C6.34267 11.25 6.25 11.4991 6.25 11.766C6.25 12.2464 6.89868 14.6664 9.27101 17.8692C10.8464 20.0578 13.089 21.2322 15.1092 21.2322C16.3324 21.2322 16.4807 20.9653 16.4807 20.5205V18.8657C16.4807 18.3319 16.5919 18.2429 16.9811 18.2429C17.2591 18.2429 17.7595 18.3852 18.8901 19.4351C20.1874 20.6806 20.4098 21.25 21.1327 21.25H23.0417C23.5977 21.25 23.8571 20.9831 23.7089 20.4671C23.5421 19.9511 22.9119 19.2037 22.0964 18.3141C21.6516 17.8158 20.9844 17.2642 20.7805 16.9973C20.5025 16.6415 20.5767 16.4991 20.7805 16.1788C20.762 16.1788 23.0973 13.0116 23.3382 11.9439Z" fill="white"/>
</g>
<defs>
<clipPath id="clip0_816_12650">
<rect width="30" height="30" fill="white"/>
</clipPath>
</defs>
</svg>
