<svg width="30" height="30" viewBox="0 0 30 30" fill="none" xmlns="http://www.w3.org/2000/svg">
<g clip-path="url(#clip0_816_12583)">
<circle opacity="0.85" cx="15" cy="15" r="15" fill="#65E46A"/>
<path fill-rule="evenodd" clip-rule="evenodd" d="M21.2002 8.79322C19.5551 7.15408 17.3674 6.251 15.0365 6.25C10.2338 6.25 6.32495 10.1399 6.32302 14.9212C6.32243 16.4495 6.72358 17.9413 7.48614 19.2564L6.25 23.75L10.8691 22.5441C12.1418 23.235 13.5747 23.5992 15.033 23.5997H15.0366C19.8388 23.5997 23.748 19.7092 23.75 14.9279C23.7508 12.611 22.8453 10.4323 21.2002 8.79322ZM15.0366 22.1351H15.0337C13.7341 22.1346 12.4595 21.7871 11.3476 21.1304L11.0831 20.9743L8.34209 21.6899L9.07371 19.0302L8.90151 18.7573C8.1766 17.6099 7.79364 16.2835 7.79423 14.9216C7.79582 10.9476 11.0447 7.71459 15.0395 7.71459C16.9738 7.71526 18.7923 8.46591 20.1596 9.82838C21.527 11.1908 22.2795 13.0016 22.2787 14.9275C22.2771 18.9018 19.0283 22.1351 15.0366 22.1351ZM19.0091 16.7369C18.7914 16.6285 17.7211 16.1043 17.5214 16.032C17.3219 15.9598 17.1767 15.9236 17.0316 16.1405C16.8865 16.3575 16.4692 16.8455 16.3421 16.9901C16.2151 17.1346 16.0881 17.1528 15.8705 17.0443C15.6527 16.9359 14.9513 16.707 14.1196 15.9688C13.4724 15.3943 13.0355 14.6848 12.9085 14.4678C12.7815 14.2509 12.8949 14.1336 13.0039 14.0256C13.1019 13.9285 13.2217 13.7724 13.3306 13.646C13.4395 13.5195 13.4757 13.429 13.5483 13.2844C13.6209 13.1399 13.5846 13.0133 13.5301 12.9049C13.4757 12.7964 13.0402 11.7298 12.8588 11.296C12.6821 10.8735 12.5026 10.9307 12.369 10.924C12.2421 10.9178 12.0969 10.9163 11.9517 10.9163C11.8065 10.9163 11.5707 10.9706 11.3711 11.1875C11.1716 11.4044 10.6091 11.9286 10.6091 12.9952C10.6091 14.0617 11.3892 15.0919 11.4981 15.2366C11.6069 15.3812 13.0334 17.5698 15.2173 18.5084C15.7367 18.7316 16.1423 18.8649 16.4585 18.9648C16.9801 19.1298 17.4547 19.1064 17.8298 19.0507C18.2481 18.9885 19.1179 18.5265 19.2993 18.0204C19.4807 17.5142 19.4807 17.0803 19.4263 16.99C19.3719 16.8997 19.2268 16.8455 19.0091 16.7369Z" fill="white"/>
</g>
<defs>
<clipPath id="clip0_816_12583">
<rect width="30" height="30" fill="white"/>
</clipPath>
</defs>
</svg>
