<svg width="33" height="40" viewBox="0 0 33 40" fill="none" xmlns="http://www.w3.org/2000/svg">
<rect x="0.666748" y="4" width="32" height="32" rx="16" fill="#A156FF"/>
<path fill-rule="evenodd" clip-rule="evenodd" d="M19.0093 11.1894C19.1293 11.3447 19.2503 11.5012 19.3684 11.6501C19.9765 12.4169 20.4725 12.5945 20.6994 12.5846C20.8107 12.5797 21.0989 12.511 21.2637 11.7859C21.5469 10.5399 22.5288 9.85447 23.5294 9.68175C24.499 9.5144 25.6282 9.80418 26.2906 10.6621C26.6913 11.181 27.0467 11.9768 26.9898 12.8259C26.9282 13.7449 26.3912 14.5927 25.2599 15.1126C24.4173 15.4998 24.1177 15.8094 24.0268 15.9782C23.9812 16.0632 23.9541 16.1591 24.0985 16.3996C24.2639 16.6749 24.5775 16.9933 25.0212 17.3819C25.1641 17.507 25.3253 17.6433 25.4933 17.7854C25.7984 18.0433 26.1259 18.3202 26.4067 18.5836C26.9846 19.1258 27.2382 19.7302 27.2569 20.3046C27.2748 20.8516 27.0774 21.3131 26.8531 21.5995L26.825 21.6353L26.7929 21.6674C26.729 21.7313 26.6233 21.8433 26.4886 21.986C26.1141 22.3828 25.516 23.0165 24.9728 23.5103C24.6056 23.8442 24.1842 24.1905 23.8016 24.3781C23.6261 24.4641 23.3263 24.5854 22.9923 24.5291C22.8025 24.4971 22.6135 24.409 22.4603 24.2522C22.314 24.1024 22.2374 23.928 22.1975 23.7765C21.8002 22.265 21.1507 21.8043 20.689 21.6979C20.1818 21.581 19.553 21.8034 19.0579 22.3126C18.5623 22.8223 18.3645 23.45 18.4978 23.9419C18.6194 24.3908 19.1035 25.0214 20.6438 25.3641C20.9027 25.4217 21.2187 25.5822 21.3749 25.9414C21.5118 26.2564 21.4496 26.5604 21.3923 26.7395C21.2771 27.0997 21.0095 27.4773 20.7534 27.7976C20.2406 28.4388 19.4845 29.1944 18.8819 29.7967C18.8504 29.8282 18.8193 29.8593 18.7886 29.8899C18.1775 30.5011 17.5241 30.7822 16.8797 30.7473C16.264 30.7139 15.7959 30.3987 15.5105 30.0946C15.464 30.0469 15.4251 29.9976 15.4091 29.9772L15.4057 29.9729C15.3822 29.9432 15.353 29.9054 15.3217 29.8649C15.3126 29.8531 15.3032 29.841 15.2938 29.8289C15.207 29.7168 15.0859 29.5615 14.921 29.3616C14.5911 28.9617 14.08 28.3762 13.3212 27.6083C13.0824 27.3667 12.9446 27.2898 12.8899 27.2657C12.8667 27.2841 12.8293 27.3185 12.776 27.3805C12.6288 27.552 12.4789 27.7926 12.2647 28.1363C12.2371 28.1806 12.2084 28.2266 12.1785 28.2744C11.9334 28.6666 11.6322 29.1349 11.2442 29.587C10.5591 30.3854 9.66059 30.6213 8.82084 30.4376C8.02472 30.2634 7.32993 29.7277 6.89065 29.0715C6.44918 28.412 6.20731 27.5384 6.47572 26.6682C6.75036 25.7778 7.50215 25.071 8.6818 24.6467C9.3104 24.4206 9.52865 24.21 9.59218 24.1102L9.5922 24.1101C9.61668 24.0717 9.65062 24.0183 9.56553 23.835C9.46541 23.6194 9.24126 23.3372 8.87313 22.9974C8.51485 22.6667 8.06843 22.3247 7.58288 21.9803C6.68604 21.3441 6.2032 20.6372 6.09722 19.9125C5.9925 19.1964 6.27803 18.5988 6.63968 18.2468C6.68582 18.2003 6.75306 18.1263 6.88411 17.982C6.95461 17.9044 7.04358 17.8065 7.15767 17.6815C7.47586 17.3331 7.96615 16.8011 8.74383 15.9771C9.01399 15.6908 9.31947 15.4367 9.67071 15.3251C10.0943 15.1904 10.4936 15.29 10.7982 15.5393C11.0485 15.7441 11.2087 16.0281 11.3155 16.2443C11.4097 16.435 11.5001 16.6551 11.5826 16.856C11.5984 16.8943 11.6138 16.932 11.629 16.9686C11.8385 17.4753 12.0275 17.8732 12.2819 18.1267C12.4783 18.3224 12.7358 18.4589 13.246 18.353C14.4177 18.1099 15.0336 17.3155 15.1574 16.5838C15.277 15.8762 14.9616 15.1754 14.0681 14.8907C13.7016 14.7739 13.3468 14.6558 13.0597 14.522C12.7955 14.399 12.4398 14.1984 12.24 13.8366C11.9992 13.4004 12.0925 12.9554 12.2689 12.6138C12.4276 12.3064 12.692 11.9968 13.0107 11.6796C13.176 11.4743 13.4132 11.2538 14.4802 10.2621C14.5265 10.219 14.5744 10.1745 14.6239 10.1285C15.0796 9.70489 15.5484 9.39914 16.0522 9.29174C16.5928 9.1765 17.0706 9.31038 17.4741 9.56452C17.8497 9.80111 18.1727 10.1485 18.4586 10.4925C18.63 10.6988 18.8186 10.9427 19.0093 11.1894ZM12.9193 27.2467C12.9192 27.247 12.9168 27.2484 12.9122 27.25C12.917 27.2472 12.9193 27.2464 12.9193 27.2467ZM16.3649 10.7588C16.2388 10.7857 16.0082 10.8897 15.6451 11.2272C14.2959 12.4813 14.2431 12.5366 14.1664 12.6366L14.1348 12.6778L14.0977 12.7142C13.8996 12.9095 13.772 13.0559 13.6926 13.1621C13.6928 13.1622 13.693 13.1623 13.6931 13.1624C13.8812 13.25 14.1482 13.3419 14.5236 13.4615C16.1763 13.9882 16.8721 15.4401 16.6364 16.8339C16.4048 18.2034 15.2988 19.459 13.5508 19.8217C12.5485 20.0297 11.7782 19.7422 11.2233 19.1893C10.7263 18.6943 10.4403 18.0192 10.2429 17.542C10.2241 17.4967 10.2063 17.4532 10.1891 17.4115C10.1063 17.2103 10.0398 17.0486 9.97074 16.9088C9.96648 16.9002 9.96231 16.8919 9.95826 16.8839C9.92288 16.9165 9.88176 16.9568 9.83472 17.0066C9.06261 17.8248 8.5779 18.3508 8.26529 18.6931C8.17862 18.788 8.10301 18.8712 8.03684 18.944C7.87484 19.1224 7.7694 19.2384 7.69663 19.3112L7.69161 19.3162L7.68651 19.3211C7.63212 19.3735 7.55346 19.5042 7.58143 19.6954C7.60876 19.8822 7.76071 20.2674 8.45071 20.7568C8.95694 21.1159 9.46318 21.5007 9.89053 21.8952C10.308 22.2805 10.7025 22.7219 10.926 23.2034C11.1646 23.7172 11.2273 24.3345 10.8577 24.9154C10.5272 25.4349 9.92852 25.7924 9.18948 26.0582C8.31449 26.3729 8.00624 26.7953 7.90908 27.1103C7.80569 27.4455 7.88027 27.8533 8.13716 28.2371C8.39624 28.6241 8.7817 28.8936 9.1414 28.9723C9.45748 29.0414 9.79036 28.9778 10.1059 28.6102C10.4155 28.2494 10.6668 27.863 10.9065 27.4794C10.9344 27.4348 10.9627 27.3892 10.9913 27.3431C11.1918 27.0203 11.4097 26.6692 11.6378 26.4035C11.9023 26.0954 12.3233 25.7302 12.9328 25.7568C13.4906 25.7811 13.9695 26.1304 14.3881 26.5539C15.1791 27.3544 15.7201 27.9732 16.078 28.4069C16.2568 28.6237 16.3885 28.7925 16.48 28.9108C16.5275 28.9721 16.5583 29.0122 16.582 29.0421C16.5864 29.0478 16.5901 29.0523 16.593 29.0559L16.6016 29.0652C16.6977 29.1691 16.8268 29.2422 16.9609 29.2495C17.0736 29.2556 17.3336 29.2236 17.728 28.8292C17.7503 28.8069 17.7727 28.7845 17.7953 28.7619C18.4199 28.1375 19.1232 27.4343 19.5819 26.8608C19.6368 26.7921 19.6848 26.7294 19.7265 26.6725C18.2475 26.2171 17.3383 25.3984 17.05 24.3342C16.7366 23.1777 17.2434 22.027 17.9825 21.2669C18.7222 20.5062 19.8585 19.9672 21.0258 20.2362C22.1027 20.4843 22.9602 21.3576 23.4715 22.8154C23.6126 22.7082 23.7784 22.569 23.9639 22.4004C24.4618 21.9477 24.9508 21.4291 25.3208 21.0366C25.4622 20.8867 25.5862 20.7551 25.6867 20.6527C25.7166 20.6024 25.7623 20.4937 25.7577 20.3534C25.7532 20.2142 25.6974 19.9749 25.3804 19.6776C25.1217 19.4348 24.856 19.2107 24.5768 18.9751C24.4014 18.8272 24.2206 18.6747 24.0329 18.5102C23.5875 18.1201 23.1105 17.6679 22.8126 17.1718C22.4938 16.6408 22.3309 15.9645 22.7059 15.2675C23.0358 14.6545 23.7134 14.1725 24.6336 13.7496C25.3125 13.4376 25.4717 13.046 25.4932 12.7256C25.5193 12.3352 25.3448 11.8915 25.1033 11.5788C24.8541 11.256 24.3361 11.0647 23.7846 11.1599C23.2641 11.2497 22.8509 11.5705 22.7264 12.1184C22.4834 13.1872 21.8276 14.0365 20.7652 14.0831C19.8184 14.1247 18.9111 13.4874 18.1931 12.5822C18.0455 12.396 17.9148 12.2267 17.7931 12.069C17.6201 11.8448 17.4651 11.6439 17.305 11.4513C17.0388 11.131 16.8402 10.938 16.6747 10.8337C16.537 10.747 16.4542 10.7397 16.3649 10.7588ZM23.0887 23.0532C23.0887 23.053 23.0917 23.0519 23.0974 23.0506C23.0914 23.0527 23.0886 23.0534 23.0887 23.0532ZM16.6019 29.0667C16.602 29.0668 16.6017 29.0665 16.6011 29.0657L16.6019 29.0667Z" fill="white"/>
</svg>
