<svg width="33" height="32" viewBox="0 0 33 32" fill="none" xmlns="http://www.w3.org/2000/svg">
<rect x="0.333374" width="32" height="32" rx="16" fill="#32B5EE"/>
<path fill-rule="evenodd" clip-rule="evenodd" d="M11.8334 23.4317V21.2942L10.5642 21.0965C10.2267 21.044 9.91459 20.9889 9.62712 20.933C8.60257 20.7337 7.83337 19.7785 7.83337 18.4131V12.0869C7.83337 10.7215 8.60257 9.76631 9.62712 9.567C11.1443 9.27185 13.3509 9 16.3334 9C19.3159 9 21.5224 9.27185 23.0396 9.567C24.0642 9.76631 24.8334 10.7215 24.8334 12.0869V18.4131C24.8334 19.7785 24.0642 20.7337 23.0396 20.933C21.5224 21.2281 19.3159 21.5 16.3334 21.5C15.8182 21.5 15.3262 21.4919 14.8569 21.4769L14.3051 21.4594L11.8334 23.4317ZM10.3334 25.509C10.3334 25.9279 10.8178 26.1611 11.1452 25.8998L14.8092 22.9762C15.2945 22.9916 15.8024 23 16.3334 23C19.4075 23 21.7101 22.7198 23.3261 22.4054C25.2073 22.0394 26.3334 20.3296 26.3334 18.4131V12.0869C26.3334 10.1704 25.2073 8.46057 23.3261 8.0946C21.7101 7.78025 19.4075 7.5 16.3334 7.5C13.2593 7.5 10.9566 7.78025 9.34069 8.0946C7.45942 8.46057 6.33337 10.1704 6.33337 12.0869V18.4131C6.33337 20.3296 7.45942 22.0394 9.34069 22.4054C9.64676 22.4649 9.97746 22.5233 10.3334 22.5787L10.3334 25.509ZM18.5356 16.5134C18.6811 16.1255 18.4846 15.6932 18.0967 15.5478C17.8366 15.4502 17.5565 15.5065 17.3563 15.6711L15.5312 15.9752C15.3817 15.595 14.954 15.4038 14.57 15.5478C14.1822 15.6932 13.9857 16.1255 14.1311 16.5134L14.8334 16.25C14.1311 16.5134 14.1313 16.5137 14.1314 16.5141L14.1317 16.5148L14.1322 16.5163L14.1335 16.5196L14.1365 16.5273L14.1445 16.5472C14.1508 16.5625 14.159 16.5815 14.1691 16.6038C14.1894 16.6483 14.2179 16.7065 14.2559 16.774C14.331 16.9075 14.447 17.0845 14.6144 17.263C14.9572 17.6287 15.5194 18 16.3334 18C17.1473 18 17.7096 17.6287 18.0524 17.263C18.2197 17.0845 18.3358 16.9075 18.4109 16.774C18.4488 16.7065 18.4774 16.6483 18.4976 16.6038C18.5078 16.5815 18.5159 16.5625 18.5222 16.5472L18.5303 16.5273L18.5333 16.5196L18.5345 16.5163L18.5351 16.5148L18.5354 16.5141C18.5355 16.5137 18.5356 16.5134 17.8334 16.25L18.5356 16.5134ZM15.5312 15.9752L15.5317 15.9765C15.5313 15.9754 15.5311 15.975 15.5312 15.9753L15.5312 15.9752ZM17.3557 15.6716L15.5317 15.9765L15.5343 15.9822C15.5389 15.9924 15.5484 16.0122 15.5632 16.0386C15.5936 16.0925 15.6416 16.1655 15.7087 16.2371C15.8346 16.3714 16.0223 16.5 16.3334 16.5C16.6444 16.5 16.8322 16.3714 16.9581 16.2371C17.0252 16.1655 17.0732 16.0925 17.1035 16.0386C17.1183 16.0122 17.1279 15.9924 17.1325 15.9822L17.135 15.9765L17.1343 15.9785L17.1356 15.9753C17.1357 15.975 17.1355 15.9754 17.135 15.9765C17.1832 15.8535 17.2604 15.7502 17.3557 15.6716ZM17.3557 15.6716L17.3563 15.6711L18.0967 15.5478L17.3557 15.6716ZM13.0834 14.25C13.0834 14.9404 12.5237 15.5 11.8334 15.5C11.143 15.5 10.5834 14.9404 10.5834 14.25C10.5834 13.5596 11.143 13 11.8334 13C12.5237 13 13.0834 13.5596 13.0834 14.25ZM20.8334 15.5C21.5237 15.5 22.0834 14.9404 22.0834 14.25C22.0834 13.5596 21.5237 13 20.8334 13C20.143 13 19.5834 13.5596 19.5834 14.25C19.5834 14.9404 20.143 15.5 20.8334 15.5Z" fill="white"/>
</svg>
