<svg width="33" height="32" viewBox="0 0 33 32" fill="none" xmlns="http://www.w3.org/2000/svg">
<rect x="0.666748" width="32" height="32" rx="16" fill="#1DCA66"/>
<path fill-rule="evenodd" clip-rule="evenodd" d="M13.4612 9.30439C13.3983 8.86968 13.0235 8.54824 12.584 8.55256L12.5798 8.55259L12.5763 8.5526H10.0959C9.8496 8.55291 9.61478 8.65667 9.44874 8.83856C9.28381 9.01924 9.20182 9.26049 9.22238 9.5041C9.48179 11.9365 10.31 14.2738 11.64 16.327C11.6413 16.3289 11.6425 16.3308 11.6437 16.3327C12.8523 18.2346 14.4648 19.8471 16.3667 21.0557C16.3687 21.057 16.3707 21.0583 16.3727 21.0596C18.4163 22.3848 20.7419 23.2127 23.163 23.4771C23.4071 23.4974 23.6488 23.4149 23.8294 23.2492C24.0115 23.0821 24.1147 22.846 24.1137 22.5989L24.1137 22.5957V20.1148C24.1137 20.1111 24.1137 20.1075 24.1138 20.1038C24.1138 20.1011 24.1139 20.0983 24.1139 20.0955C24.125 19.651 23.8018 19.2686 23.362 19.2051C22.5114 19.0926 21.6762 18.8844 20.8724 18.5844L20.8706 18.5838C20.5505 18.4634 20.1896 18.5401 19.9459 18.78L19.9447 18.7813L18.8975 19.8284C18.6504 20.0755 18.2687 20.1271 17.9649 19.9543C15.7731 18.708 13.9583 16.8932 12.712 14.7014C12.5392 14.3976 12.5908 14.0159 12.8379 13.7688L13.8864 12.7203C14.1263 12.4767 14.2029 12.1158 14.0825 11.7957L14.0819 11.7939C13.7819 10.9901 13.5737 10.155 13.4612 9.30439ZM12.5729 7.00008C13.7909 6.99016 14.8284 7.88363 14.9989 9.0901C14.9992 9.09248 14.9996 9.09485 14.9999 9.09724C15.0969 9.83283 15.2768 10.5551 15.5361 11.2503C15.8695 12.1381 15.6559 13.1389 14.989 13.8133L14.9859 13.8163L14.3642 14.4381C15.3502 15.9962 16.6701 17.3161 18.2282 18.3022L18.85 17.6804L18.853 17.6773C19.5274 17.0105 20.5279 16.7969 21.4157 17.1301C22.111 17.3895 22.8334 17.5694 23.5691 17.6664C23.5714 17.6667 23.5737 17.6671 23.576 17.6674C24.7944 17.8393 25.6915 18.8944 25.6662 20.1235V22.5945C25.6685 23.2781 25.3827 23.931 24.8789 24.3932C24.3747 24.8558 23.6988 25.0844 23.0173 25.0228C23.0126 25.0224 23.008 25.0219 23.0033 25.0214C20.3391 24.7319 17.7798 23.8218 15.531 22.3641C13.439 21.0341 11.6652 19.2603 10.3352 17.1682C8.87238 14.9092 7.96201 12.3374 7.67781 9.66112C7.67738 9.65708 7.67698 9.65305 7.67662 9.64901C7.61522 8.96961 7.8422 8.29569 8.30211 7.79187C8.76202 7.28805 9.41251 7.00072 10.0947 7.00008L12.5729 7.00008Z" fill="white"/>
</svg>
